<svg width="144" height="27" viewBox="0 0 144 27" fill="none" xmlns="http://www.w3.org/2000/svg">
<path d="M24.7456 23.4543L22.4416 21.5023C23.7216 19.6463 24.4256 17.4063 24.4256 15.0703V15.0063C24.4256 8.63826 19.4656 3.48626 12.5536 3.48626C5.64157 3.48626 0.61757 8.70226 0.61757 15.0703V15.1343C0.61757 21.5023 5.57757 26.6543 12.4896 26.6543C14.9856 26.6543 17.2576 25.9503 19.1456 24.7343L21.6096 26.9423L24.7456 23.4543ZM19.2736 15.1343C19.2736 16.2543 19.0816 17.2783 18.6656 18.2063L14.9856 14.8783L11.8496 18.3983L15.4976 21.5023C14.6336 21.8863 13.6416 22.1103 12.5536 22.1103C8.58557 22.1103 5.76957 18.9103 5.76957 15.0703V15.0063C5.76957 11.1663 8.52157 8.03026 12.4896 8.03026C16.4576 8.03026 19.2736 11.2303 19.2736 15.0703V15.1343ZM52.8931 9.11826H48.0611L45.2451 19.5503L41.9811 9.05426H37.7891L34.5571 19.5183L31.8051 9.11826H26.8771L32.1571 26.3983H36.5091L39.8691 15.8703L43.1651 26.3983H47.5491L52.8931 9.11826ZM72.4556 26.2703L65.7036 15.8703L72.2316 9.11826H66.4076L60.7116 15.3583V2.91026H55.8476V26.2703H60.7116V21.0543L62.4076 19.2623L66.8876 26.2703H72.4556Z" fill="#583FD0"/>
<path d="M89.2171 3.80626V8.19026H80.0651V12.9263H86.9131V17.1823H80.0651V26.2703H74.5931V3.80626H89.2171ZM94.8451 6.55826C93.8851 6.55826 93.0957 6.28093 92.4771 5.72626C91.8797 5.15026 91.5811 4.44626 91.5811 3.61426C91.5811 2.76093 91.8797 2.05693 92.4771 1.50226C93.0957 0.926262 93.8851 0.638262 94.8451 0.638262C95.7837 0.638262 96.5517 0.926262 97.1491 1.50226C97.7677 2.05693 98.0771 2.76093 98.0771 3.61426C98.0771 4.44626 97.7677 5.15026 97.1491 5.72626C96.5517 6.28093 95.7837 6.55826 94.8451 6.55826ZM97.5651 8.41426V26.2703H92.0931V8.41426H97.5651ZM107.003 11.3903C107.643 10.4089 108.443 9.64093 109.403 9.08626C110.363 8.51026 111.429 8.22226 112.603 8.22226V14.0143H111.099C109.733 14.0143 108.709 14.3129 108.027 14.9103C107.344 15.4863 107.003 16.5103 107.003 17.9823V26.2703H101.531V8.41426H107.003V11.3903ZM122.482 26.5263C120.925 26.5263 119.538 26.2596 118.322 25.7263C117.106 25.1929 116.146 24.4676 115.442 23.5503C114.738 22.6116 114.343 21.5663 114.258 20.4143H119.666C119.73 21.0329 120.018 21.5343 120.53 21.9183C121.042 22.3023 121.671 22.4943 122.418 22.4943C123.101 22.4943 123.623 22.3663 123.986 22.1103C124.37 21.8329 124.562 21.4809 124.562 21.0543C124.562 20.5423 124.295 20.1689 123.762 19.9343C123.229 19.6783 122.365 19.4009 121.17 19.1023C119.89 18.8036 118.823 18.4943 117.97 18.1743C117.117 17.8329 116.381 17.3103 115.762 16.6063C115.143 15.8809 114.834 14.9103 114.834 13.6943C114.834 12.6703 115.111 11.7423 115.666 10.9103C116.242 10.0569 117.074 9.38493 118.162 8.89426C119.271 8.4036 120.583 8.15826 122.098 8.15826C124.338 8.15826 126.098 8.71293 127.378 9.82226C128.679 10.9316 129.426 12.4036 129.618 14.2383H124.562C124.477 13.6196 124.199 13.1289 123.73 12.7663C123.282 12.4036 122.685 12.2223 121.938 12.2223C121.298 12.2223 120.807 12.3503 120.466 12.6063C120.125 12.8409 119.954 13.1716 119.954 13.5983C119.954 14.1103 120.221 14.4943 120.754 14.7503C121.309 15.0063 122.162 15.2623 123.314 15.5183C124.637 15.8596 125.714 16.2009 126.546 16.5423C127.378 16.8623 128.103 17.3956 128.722 18.1423C129.362 18.8676 129.693 19.8489 129.714 21.0863C129.714 22.1316 129.415 23.0703 128.818 23.9023C128.242 24.7129 127.399 25.3529 126.29 25.8223C125.202 26.2916 123.933 26.5263 122.482 26.5263ZM143.014 21.6303V26.2703H140.23C138.246 26.2703 136.699 25.7903 135.59 24.8303C134.48 23.8489 133.926 22.2596 133.926 20.0623V12.9583H131.75V8.41426H133.926V4.06226H139.398V8.41426H142.982V12.9583H139.398V20.1263C139.398 20.6596 139.526 21.0436 139.782 21.2783C140.038 21.5129 140.464 21.6303 141.062 21.6303H143.014Z" fill="black"/>
</svg>
